HIERARCHY
ROOT hip
{
	OFFSET 0.000000 0.000000 0.000000 
	CHANNELS 6 Xposition Yposition Zposition Xrotation Zrotation Yrotation
	JOINT abdomen
	{
		OFFSET 0.000000 3.402643 0.000000 
		CHANNELS 3 Xrotation Zrotation Yrotation
		JOINT chest
		{
			OFFSET 0.000000 8.438565 -0.680529 
			CHANNELS 3 Xrotation Zrotation Yrotation
			JOINT neck
			{
				OFFSET 0.000000 10.207942 -0.272212 
				CHANNELS 3 Xrotation Zrotation Yrotation
				JOINT head
				{
					OFFSET 0.000000 3.130431 0.000000 
					CHANNELS 3 Xrotation Zrotation Yrotation
					End Site
					{
						OFFSET 0.000000 3.130435 0.000000 
					}
				}
			}
			JOINT lCollar
			{
				OFFSET 3.470700 6.669187 -0.816635 
				CHANNELS 3 Yrotation Zrotation Xrotation
				JOINT lShldr
				{
					OFFSET 3.198488 0.000000 0.000000 
					CHANNELS 3 Zrotation Yrotation Xrotation
					JOINT lForeArm
					{
						OFFSET 10.139888 0.000000 0.000000 
						CHANNELS 3 Yrotation Zrotation Xrotation
						JOINT lHand
						{
							OFFSET 8.370511 0.000000 0.000000 
							CHANNELS 3 Zrotation Yrotation Xrotation
							End Site
							{
								OFFSET 4.083176 0.000000 0.000000 
							}
						}
					}
				}
			}
			JOINT rCollar
			{
				OFFSET -3.470700 6.669187 -0.816635 
				CHANNELS 3 Yrotation Zrotation Xrotation
				JOINT rShldr
				{
					OFFSET -3.198488 0.000000 0.000000 
					CHANNELS 3 Zrotation Yrotation Xrotation
					JOINT rForeArm
					{
						OFFSET -10.139888 0.000000 0.000000 
						CHANNELS 3 Yrotation Zrotation Xrotation
						JOINT rHand
						{
							OFFSET -8.370511 0.000000 0.000000 
							CHANNELS 3 Zrotation Yrotation Xrotation
							End Site
							{
								OFFSET -4.083176 0.000000 0.000000 
							}
						}
					}
				}
			}
		}
	}
	JOINT lThigh
	{
		OFFSET 5.308129 -1.633274 1.361059 
		CHANNELS 3 Xrotation Zrotation Yrotation
		JOINT lShin
		{
			OFFSET -2.041588 -20.007561 0.000000 
			CHANNELS 3 Xrotation Zrotation Yrotation
			JOINT lFoot
			{
				OFFSET 0.000000 -19.190928 -1.224953 
				CHANNELS 3 Xrotation Yrotation Zrotation
				End Site
				{
					OFFSET 0.000000 -2.449906 4.627600 
				}
			}
		}
	}
	JOINT rThigh
	{
		OFFSET -5.308129 -1.633274 1.361059 
		CHANNELS 3 Xrotation Zrotation Yrotation
		JOINT rShin
		{
			OFFSET 2.041588 -20.007561 0.000000 
			CHANNELS 3 Xrotation Zrotation Yrotation
			JOINT rFoot
			{
				OFFSET 0.000000 -19.190928 -1.224953 
				CHANNELS 3 Xrotation Yrotation Zrotation
				End Site
				{
					OFFSET 0.000000 -2.449906 4.627600 
				}
			}
		}
	}
}
MOTION
Frames: 13
Frame Time: 0.016667
-23.851540 43.433655 214.008636 2.451310 0.604915 55.035801 -13.743900 -1.754830 3.164280 24.416201 4.491790 1.397070 22.723400 -6.512950 3.161870 16.430901 1.090360 3.280960 2.000000 -2.000000 0.000000 -2.586370 -48.018299 154.330002 42.832500 -0.315109 0.093005 0.065419 -0.058432 -158.279007 -2.000000 2.000000 0.000000 6.140450 55.111000 153.037003 -40.088299 0.319444 0.088044 -0.059636 0.040654 -151.598999 9.746640 -9.731461 -8.047318 14.157402 4.589518 0.844066 -11.152147 5.548553 -3.012513 -16.533550 -4.525835 -4.654555 8.144845 -3.273314 -0.616189 9.398533 18.088150 -4.290421 
-23.269403 43.298161 214.362488 3.115840 1.131140 56.741402 -13.533200 -1.820470 2.930150 24.975700 4.673630 1.298660 22.838699 -6.319880 3.480260 16.578400 1.241950 3.444690 2.000000 -2.000000 0.000000 -2.770920 -47.852901 154.065994 42.959400 -0.314903 0.093226 0.065429 -0.058457 -158.289001 -2.000000 2.000000 0.000000 5.622940 55.346699 152.423004 -40.029701 0.319534 0.087937 -0.059636 0.040654 -151.598999 10.278001 -10.362491 -8.138040 15.030789 4.718940 0.890248 -11.441241 3.727142 -3.506872 -17.096874 -4.978986 -3.776691 8.241155 -3.214224 -0.601802 9.978868 18.864666 -4.522943 
-22.671427 43.155472 214.782654 3.272570 1.472210 58.306999 -13.641100 -1.617040 2.756470 24.888901 4.898140 1.249830 22.872700 -6.969170 3.534500 16.625601 0.993828 3.497730 2.000000 -2.000000 0.000000 -3.241720 -48.380001 154.173996 42.363701 -0.315867 0.092181 0.065025 -0.067177 -157.888000 -2.000000 2.000000 0.000000 5.789520 55.365700 152.656998 -39.941799 0.319669 0.087777 -0.059588 0.040469 -151.531006 10.959706 -10.280527 -7.995401 15.686783 4.946034 0.890079 -11.557949 2.287887 -3.929833 -17.417774 -4.915688 -3.352406 8.593612 -3.086389 -0.649471 12.202153 19.042850 -5.117179 
-22.067497 43.014835 215.209518 3.497750 1.764290 59.903000 -13.785900 -1.390530 2.727490 24.723301 5.064770 1.257450 23.245701 -6.744060 3.581850 16.821800 1.116450 3.548790 2.000000 -2.000000 0.000000 -3.525600 -48.163101 155.128006 42.803200 -0.315157 0.092953 0.065730 -0.059221 -158.582001 -2.000000 2.000000 0.000000 5.943090 54.661400 153.203003 -40.293400 0.319128 0.088418 -0.059811 0.041315 -151.843994 11.757260 -10.441745 -9.054516 16.206825 5.284219 0.934721 -11.675074 1.931091 -4.248912 -17.222424 -4.749016 -1.490978 8.394274 -2.833475 -0.696505 14.090871 17.504162 -5.224512 
-21.376280 42.866459 215.638657 4.173850 2.483640 61.558399 -13.892800 -1.379240 2.759070 24.655701 5.221060 1.272310 22.995300 -6.559560 3.594750 16.656000 1.155640 3.544340 2.000000 -2.000000 0.000000 -4.094290 -48.621201 155.529999 42.666401 -0.315378 0.092714 0.065489 -0.058610 -158.347000 -2.000000 2.000000 0.000000 6.215040 54.279999 153.455994 -40.224998 0.319234 0.088294 -0.059769 0.041157 -151.785004 12.799601 -11.050963 -9.560285 16.843058 5.543448 0.954024 -11.559023 0.138907 -4.763474 -17.266645 -5.446257 -1.157516 9.646738 -2.935941 -0.774180 15.736666 17.085382 -5.491888 
-20.658323 42.712925 216.062180 5.095760 3.180760 63.330502 -13.954800 -1.385070 2.523040 24.806200 5.697290 1.165640 23.093300 -7.077500 3.499430 16.752199 0.916862 3.521760 2.000000 -2.000000 0.000000 -4.503600 -48.347599 155.636993 42.305099 -0.315961 0.092078 0.064898 -0.066845 -157.761993 -2.000000 2.000000 0.000000 6.089290 54.494801 153.514999 -40.195702 0.319279 0.088240 -0.059783 0.041210 -151.804993 13.593788 -11.656507 -9.661329 17.565763 5.667441 1.007808 -11.425665 -1.889544 -5.217007 -17.217909 -6.340479 -0.580118 11.430276 -3.109339 -0.873456 10.752203 15.390857 -3.810555 
-19.961491 42.572029 216.498062 5.880190 3.506890 65.459099 -14.214200 -1.454290 2.120360 24.680300 5.922240 0.964054 23.280100 -7.321580 3.633960 16.888500 0.839915 3.623730 2.000000 -2.000000 0.000000 -5.079280 -48.063499 156.007004 42.314899 -0.315945 0.092095 0.064598 -0.066052 -157.459000 -2.000000 2.000000 0.000000 6.520660 54.640202 154.022995 -40.283600 0.319143 0.088400 -0.059818 0.041342 -151.852997 14.110275 -11.927882 -10.125488 18.347298 5.861098 1.044688 -10.798392 -3.149783 -5.456138 -16.965351 -6.912946 0.312752 13.580956 -3.194430 -1.023865 4.215678 12.699647 -2.096181 
-19.240728 42.444294 216.927170 6.261760 3.504410 67.367203 -14.460300 -1.373540 1.868220 24.610901 5.835070 0.843385 23.299900 -6.583580 3.958670 16.900700 1.239690 3.764170 2.000000 -2.000000 0.000000 -5.441180 -48.111801 156.281006 42.099998 -0.316289 0.091716 0.064617 -0.066103 -157.477997 -2.000000 2.000000 0.000000 7.195210 54.757198 154.082001 -40.117599 0.319399 0.088098 -0.059588 0.040469 -151.531006 14.553696 -11.656673 -10.618129 19.073391 6.001583 1.076127 -9.987174 -4.249466 -5.548689 -16.634602 -6.913553 1.146593 14.899067 -3.180347 -1.115831 1.638079 10.061071 -1.546023 
-18.526146 42.393753 217.346207 6.183040 3.436970 69.005402 -14.567000 -0.942834 1.579530 24.681499 6.087820 0.770869 23.357700 -7.074520 3.874830 17.007000 1.067650 3.717210 2.000000 -2.000000 0.000000 -6.505600 -48.052898 156.406998 42.080502 -0.316321 0.091681 0.064445 -0.065642 -157.302994 -2.000000 2.000000 0.000000 7.616200 55.050701 153.819000 -39.941799 0.319669 0.087777 -0.059228 0.039065 -151.014008 14.973383 -10.972168 -10.976989 20.122595 6.196262 1.161203 -8.888562 -5.512240 -5.586051 -15.529646 -5.818016 4.028719 15.055037 -3.108656 -1.145020 -0.300810 5.440277 -1.223770 
-17.814821 42.445328 217.704544 5.407460 2.926390 70.550499 -14.704300 -0.499537 1.185620 24.747900 5.775630 0.647936 23.262699 -7.228590 3.721600 17.006599 0.991523 3.621510 2.000000 -2.000000 0.000000 -7.490840 -47.602901 156.778000 42.246498 -0.316055 0.091975 0.064752 -0.066462 -157.615005 -2.000000 2.000000 0.000000 8.477030 55.314400 153.847000 -39.990601 0.319594 0.087866 -0.059295 0.039330 -151.110992 14.983179 -9.602733 -11.387702 21.456057 6.392214 1.236760 -7.433008 -6.319996 -5.405358 -14.891763 -4.302176 5.889411 16.052261 -2.968077 -1.253013 -2.307866 2.273173 -1.253286 
-17.141354 42.608902 218.016861 4.898660 2.850890 72.363602 -14.773600 -0.201253 0.846850 24.568701 5.406720 0.515521 23.338301 -7.232480 3.402790 17.074600 0.943540 3.455410 2.000000 -2.000000 0.000000 -8.145740 -47.601898 157.216995 41.943802 -0.316539 0.091439 0.065162 -0.067535 -158.024994 -2.000000 2.000000 0.000000 9.522630 55.402000 153.953995 -39.941799 0.319669 0.087777 -0.059322 0.039436 -151.149994 15.149858 -8.413423 -11.327269 22.551802 6.451118 1.306275 -5.183024 -6.993796 -4.934272 -14.303272 -3.836401 5.284947 17.812311 -3.027289 -1.375501 -4.461877 1.646059 -1.326308 
-16.494734 42.831524 218.334778 5.211500 2.839790 74.302002 -14.901400 -0.021604 0.578955 24.412300 5.495420 0.418792 23.626600 -7.585530 3.175810 17.298000 0.704592 3.383470 2.000000 -2.000000 0.000000 -8.585800 -47.581299 157.714996 41.865700 -0.316663 0.091300 0.065380 -0.058330 -158.240005 -2.000000 2.000000 0.000000 10.176500 55.255100 154.149002 -39.961300 0.319639 0.087812 -0.059540 0.040284 -151.462997 15.026109 -7.849562 -11.761210 23.539679 6.333666 1.370556 -2.168757 -7.575802 -4.240562 -13.712107 -4.395504 4.884646 18.895941 -3.184370 -1.395458 -5.750649 0.971618 -1.384787 
-15.844521 43.060726 218.653824 5.866490 2.817220 76.305099 -14.990000 0.059133 0.296097 24.383699 5.632030 0.298118 23.594900 -7.978130 2.932220 17.394600 0.476089 3.252280 2.000000 -2.000000 0.000000 -8.342400 -47.540798 158.378998 41.640999 -0.317020 0.090900 0.065892 -0.059627 -158.738007 -2.000000 2.000000 0.000000 10.234400 55.049500 154.393005 -40.098099 0.319429 0.088062 -0.059804 0.041289 -151.834000 14.903126 -7.559062 -11.768208 24.032915 6.228213 1.397182 0.699380 -7.574624 -3.531458 -12.998383 -5.264956 4.312509 19.715601 -3.377537 -1.407021 -7.224554 0.307248 -1.519382 
